<svg xmlns="http://www.w3.org/2000/svg" width="74.365" height="51.254" viewBox="0 0 74.365 51.254">
  <g id="Component_17_72" data-name="Component 17 – 72" transform="translate(0.25)">
    <path id="Path_9" data-name="Path 9" d="M-1137.434,217.762a.356.356,0,0,1-.16-.068l-12.129-6.723q-1.9-1.055-3.808-2.107a.256.256,0,0,1-.155-.262c0-2.422,0-4.845.007-7.267a.307.307,0,0,0-.18-.316q-3.107-1.712-6.207-3.437a.566.566,0,0,1-.074-.041.258.258,0,0,0-.322-.006q-2.062,1.153-4.13,2.293c-.726.4-1.45.808-2.179,1.2a.271.271,0,0,0-.16.278q.006,3.617,0,7.234a.574.574,0,0,0,0,.085.2.2,0,0,1-.129.226c-.457.246-.91.5-1.364.753l-14.6,8.094c-.044.024-.09.046-.131.067-.055-.026-.035-.071-.037-.107,0-.056,0-.113,0-.169v-24.9a.293.293,0,0,0,0-.051c-.024-.131.037-.2.151-.263q2.7-1.488,5.392-2.986l11.922-6.609q2.636-1.461,5.271-2.924a.271.271,0,0,1,.306,0q5.084,2.825,10.173,5.642,6.168,3.419,12.336,6.838c.267.148.219.072.219.373q0,12.468,0,24.936A.644.644,0,0,1-1137.434,217.762Zm-.871-1.523v-7.854q0-7.649,0-15.3a.281.281,0,0,0-.166-.291c-.567-.3-1.127-.621-1.69-.933l-11.123-6.165q-4.436-2.459-8.87-4.92a.275.275,0,0,0-.308,0c-.846.476-1.7.945-2.546,1.415q-9.545,5.291-19.09,10.582c-.243.135-.2.064-.2.349q0,11.359,0,22.718c0,.09,0,.181,0,.271,0,.042-.014.09.031.135.042-.021.088-.041.131-.065.6-.331,1.2-.66,1.792-.994.274-.153.226-.071.226-.386q0-10.309,0-20.617a.281.281,0,0,1,.166-.29q3.61-1.993,7.215-3.995,6.146-3.407,12.291-6.817a.26.26,0,0,1,.292,0c.723.407,1.45.807,2.176,1.209q8.657,4.8,17.315,9.594a.3.3,0,0,1,.177.3q-.008,3.083,0,6.167,0,7.251,0,14.5a.294.294,0,0,0,.175.3c.617.331,1.226.675,1.839,1.013A.255.255,0,0,0-1138.305,216.24Zm-40.891-1.688c.061-.032.116-.06.169-.09q.889-.492,1.777-.986c.253-.141.212-.077.212-.361q0-7.945,0-15.89c0-.446,0-.892,0-1.338a.218.218,0,0,1,.135-.222q1.425-.783,2.845-1.574,6.8-3.768,13.594-7.539a.288.288,0,0,1,.322,0q1.87,1.045,3.745,2.08l11.389,6.312c.439.244.877.489,1.319.729a.193.193,0,0,1,.128.209,1.657,1.657,0,0,0,0,.2v12.688q0,2.211,0,4.422a.245.245,0,0,0,.147.25c.625.339,1.245.687,1.868,1.031.047.026.09.071.155.056a.55.55,0,0,0,.014-.216q0-9.792,0-19.583c0-.04,0-.079,0-.119a.125.125,0,0,0-.077-.136c-.046-.022-.089-.049-.133-.074l-8.353-4.63q-5.1-2.828-10.2-5.659a.274.274,0,0,0-.308,0q-3.877,2.156-7.759,4.3-5.421,3-10.843,6.006a.284.284,0,0,0-.172.288q.005,9.826,0,19.651A.308.308,0,0,0-1179.2,214.552Zm34.719-1.718a.4.4,0,0,0,.016-.176c0-.248,0-.5,0-.745q0-7.724,0-15.449a.278.278,0,0,0-.168-.288c-.513-.273-1.019-.56-1.527-.842q-7-3.883-14.008-7.768a.261.261,0,0,0-.293,0c-.783.439-1.569.872-2.354,1.307q-6.6,3.657-13.2,7.312a.257.257,0,0,0-.151.264q0,8.106,0,16.211a.316.316,0,0,0,.018.17.271.271,0,0,0,.151-.061c.6-.333,1.206-.665,1.807-1,.236-.132.207-.059.207-.347q0-6.877,0-13.755c0-.364-.052-.264.257-.435q6.626-3.675,13.252-7.351a.275.275,0,0,1,.308,0q6.647,3.69,13.3,7.375c.254.141.208.066.208.361q0,6.92,0,13.84a.28.28,0,0,0,.166.29c.616.332,1.226.675,1.839,1.014A.341.341,0,0,0-1144.478,212.834Zm-28.6-1.681c.085-.043.14-.068.193-.1q.889-.492,1.777-.986c.251-.14.212-.07.212-.36q0-5.26,0-10.519a.242.242,0,0,1,.129-.259q5.15-2.847,10.292-5.7a.3.3,0,0,1,.337,0q2.929,1.632,5.863,3.254,2.206,1.223,4.414,2.444a.214.214,0,0,1,.14.236,1.479,1.479,0,0,0,0,.186q0,5.209,0,10.418a.269.269,0,0,0,.16.277c.611.33,1.216.67,1.824,1.006a.494.494,0,0,0,.188.084.4.4,0,0,0,.02-.184q0-6.429,0-12.857a.272.272,0,0,0-.161-.277q-6.23-3.447-12.454-6.9a.289.289,0,0,0-.322,0q-6.018,3.341-12.039,6.676c-.158.088-.314.178-.474.262a.148.148,0,0,0-.1.159.881.881,0,0,1,0,.1v13.044Zm3.1-1.726a.408.408,0,0,0,.165-.072c.608-.336,1.213-.676,1.824-1.006a.292.292,0,0,0,.179-.3c-.005-2.422,0-4.845-.006-7.267a.27.27,0,0,1,.155-.279q3.6-1.988,7.2-3.989a.288.288,0,0,1,.322,0q1.722.963,3.449,1.915,1.88,1.043,3.763,2.083c.1.055.16.115.142.236a1.185,1.185,0,0,0,0,.169q0,3.566,0,7.132a.294.294,0,0,0,.179.3c.611.329,1.216.67,1.824,1.006a.366.366,0,0,0,.185.072v-.189q0-4.752,0-9.5a.293.293,0,0,0-.178-.3q-3.617-2-7.229-4c-.721-.4-1.442-.8-2.161-1.2a.206.206,0,0,0-.261,0,.4.4,0,0,1-.059.033q-4.673,2.59-9.346,5.178a.271.271,0,0,0-.164.274q.006,4.76,0,9.52A.455.455,0,0,0-1169.979,209.427Z" transform="translate(1197.262 -179.709)" fill="#fff"/>
    <g id="Group_16" data-name="Group 16" transform="translate(1382.435 -176.225)">
      <path id="Path_3" data-name="Path 3" d="M-557.581,787.771c-.028-.036-.07-.03-.108-.037a2.37,2.37,0,0,1-1.951-1.97,2.5,2.5,0,0,1,.614-2.167,2.3,2.3,0,0,1,1.641-.768,2.365,2.365,0,0,1,1.9.718,2.364,2.364,0,0,1,.67,1.5,2.474,2.474,0,0,1-.722,2.036,2.283,2.283,0,0,1-1.29.654.187.187,0,0,0-.111.035Zm2.226-2.494a2.142,2.142,0,0,0-.195-.872,1.866,1.866,0,0,0-3.157-.381,2.133,2.133,0,0,0-.026,2.5,1.857,1.857,0,0,0,3.162-.284A2.194,2.194,0,0,0-555.355,785.277Z" transform="translate(-764.678 -560.542)" fill="#fff" stroke="#fff" stroke-width="0.5"/>
      <path id="Path_4" data-name="Path 4" d="M-717.917,787.775a.678.678,0,0,0-.261-.06,2.292,2.292,0,0,1-1.8-1.927,2.592,2.592,0,0,1,.5-2.061,2.247,2.247,0,0,1,1.8-.9,2.958,2.958,0,0,1,.969.124,2.557,2.557,0,0,1,.8.44c.067.052.065.09.011.149-.073.078-.143.16-.208.245-.051.067-.093.059-.152.01a1.889,1.889,0,0,0-.823-.415,1.983,1.983,0,0,0-1.15.044,1.827,1.827,0,0,0-1.156,1.34,2.163,2.163,0,0,0,.164,1.549,1.741,1.741,0,0,0,1.516.982,2.234,2.234,0,0,0,1.411-.385.241.241,0,0,0,.128-.234c-.009-.3,0-.6,0-.9,0-.164,0-.165-.171-.166h-1.117c-.166,0-.167,0-.168-.169,0-.073,0-.147,0-.22a.072.072,0,0,1,.083-.082h1.795a.073.073,0,0,1,.086.08c0,.034,0,.068,0,.1,0,.525,0,1.05,0,1.575a.281.281,0,0,1-.126.255,2.923,2.923,0,0,1-1.351.587.138.138,0,0,0-.093.033Z" transform="translate(-615.658 -560.546)" fill="#fff" stroke="#fff" stroke-width="0.5"/>
      <path id="Path_5" data-name="Path 5" d="M-382.848,785.732c-.055.089-.042.2-.083.29a1.489,1.489,0,0,1-.644.718,2.277,2.277,0,0,1-1.106.27c-.344.006-.689,0-1.033,0-.155,0-.157,0-.157.16,0,.457,0,.914,0,1.372,0,.157,0,.158-.16.159-.1,0-.192,0-.288,0-.055,0-.084-.024-.083-.081,0-.04,0-.079,0-.119q0-2.193,0-4.385c0-.216-.02-.2.2-.2.519,0,1.039,0,1.558,0a2.386,2.386,0,0,1,.927.168,1.394,1.394,0,0,1,.8.8c.03.078.009.17.07.238Zm-3.023-.263c0,.311,0,.621,0,.932,0,.085.026.121.116.12.412,0,.824.005,1.236-.007a1.363,1.363,0,0,0,.8-.285,1.007,1.007,0,0,0-.2-1.678,1.658,1.658,0,0,0-.641-.139c-.39-.005-.779,0-1.169,0-.135,0-.137,0-.138.146C-385.872,784.859-385.871,785.164-385.871,785.469Z" transform="translate(-925.722 -561.553)" fill="#fff" stroke="#fff" stroke-width="0.5"/>
      <path id="Path_6" data-name="Path 6" d="M-466.423,788.783a.691.691,0,0,0-.262-.056,1.752,1.752,0,0,1-1.429-1.467,2.937,2.937,0,0,1-.046-.539q0-1.3,0-2.609c0-.017,0-.034,0-.051,0-.143,0-.143.14-.146.079,0,.158,0,.237,0,.146,0,.148,0,.148.154,0,.83,0,1.66,0,2.49a2.645,2.645,0,0,0,.079.721,1.29,1.29,0,0,0,1.173.991,1.75,1.75,0,0,0,.77-.073,1.265,1.265,0,0,0,.851-1.011,2.806,2.806,0,0,0,.043-.573q0-1.245,0-2.49c0-.04,0-.079,0-.119,0-.064.03-.092.093-.091q.178,0,.356,0c.056,0,.083.025.082.081,0,.034,0,.068,0,.1q0,1.313,0,2.625a2.424,2.424,0,0,1-.187.974,1.708,1.708,0,0,1-1.4,1.047.48.48,0,0,0-.181.038Z" transform="translate(-849.737 -561.554)" fill="#fff" stroke="#fff" stroke-width="0.5"/>
      <path id="Path_7" data-name="Path 7" d="M-1118.935,787.765a.136.136,0,0,0-.092-.034,2.372,2.372,0,0,1-1.976-2.171,2.5,2.5,0,0,1,.726-2.069,2.265,2.265,0,0,1,1.532-.668,2.689,2.689,0,0,1,1.209.2,2.659,2.659,0,0,1,.729.487c.051.045.065.083.009.138-.081.079-.158.161-.231.247-.054.064-.1.055-.154,0a3.181,3.181,0,0,0-.379-.285,1.852,1.852,0,0,0-2.818,1.079,2.052,2.052,0,0,0,.263,1.768,1.858,1.858,0,0,0,2.473.571,3.1,3.1,0,0,0,.452-.327c.042-.037.085-.072.136-.115.1.094.187.185.282.272.056.051.046.09,0,.139a2.527,2.527,0,0,1-1.367.728.261.261,0,0,0-.145.039Z" transform="translate(-242.967 -560.537)" fill="#fff" stroke="#fff" stroke-width="0.5"/>
      <path id="Path_8" data-name="Path 8" d="M-1382.435,783.769a.718.718,0,0,0,.2.01h3.334c.045,0,.091,0,.135,0,.077,0,.115.024.113.106s0,.192,0,.288c0,.071-.024.106-.1.1-.034,0-.068,0-.1,0h-1.185c-.251,0-.231-.026-.231.224q0,1.9,0,3.808c0,.04,0,.079,0,.119,0,.141,0,.142-.138.144-.085,0-.169,0-.254,0-.136,0-.136,0-.139-.146,0-.039,0-.079,0-.119q0-1.913,0-3.825c0-.223.011-.2-.2-.2l-1.439,0Z" transform="translate(0 -561.419)" fill="#fff" stroke="#fff" stroke-width="0.5"/>
      <path id="Path_10" data-name="Path 10" d="M-631.471,786.767l1.455,1.936c-.229,0-.418,0-.607,0-.074,0-.1-.069-.135-.116q-.543-.725-1.085-1.452a.991.991,0,0,0-.223-.272c-.1-.062-.242-.019-.366-.021-.288,0-.576,0-.864,0-.138,0-.141,0-.141.144,0,.491,0,.983,0,1.474,0,.045,0,.09,0,.135,0,.077-.024.114-.107.111-.107-.005-.214,0-.322,0-.082,0-.112-.035-.106-.113,0-.028,0-.057,0-.085q0-2.194,0-4.387c0-.217-.013-.206.2-.205.61,0,1.22,0,1.83,0a2.244,2.244,0,0,1,.987.2,1.374,1.374,0,0,1,.625,1.873,1.44,1.44,0,0,1-.883.691A.9.9,0,0,0-631.471,786.767Zm-1.967-1.388c0,.276,0,.553,0,.829,0,.157,0,.159.162.16.446,0,.891,0,1.337,0a1.431,1.431,0,0,0,.8-.221.9.9,0,0,0,.405-.922.839.839,0,0,0-.578-.708,1.589,1.589,0,0,0-.579-.1c-.468,0-.936,0-1.4,0-.143,0-.145,0-.146.157C-633.439,784.837-633.438,785.108-633.438,785.379Z" transform="translate(-695.628 -561.554)" fill="#fff" stroke="#fff" stroke-width="0.5"/>
      <path id="Path_11" data-name="Path 11" d="M-1226.364,786.319v-2.185c0-.04,0-.079,0-.119,0-.065.027-.093.09-.091.034,0,.068,0,.1,0h3.066c.034,0,.068,0,.1,0,.064,0,.093.025.091.09,0,.1,0,.2,0,.3,0,.077-.036.1-.1.095-.152,0-.3,0-.457,0h-2.118c-.045,0-.09,0-.135,0-.083-.006-.106.036-.106.112,0,.243,0,.486,0,.728q0,.305,0,.61c0,.2-.007.189.2.189h2.2c.231,0,.211-.023.212.206,0,.286,0,.286-.286.286h-2.118c-.034,0-.068,0-.1,0-.081-.006-.109.031-.108.11,0,.209,0,.418,0,.627,0,.26,0,.52,0,.779,0,.159,0,.161.158.161h1.982c.232,0,.463,0,.695,0,.084,0,.126.023.12.114-.009.118.046.265-.022.346s-.223.031-.339.031q-1.432,0-2.863,0h-.119c-.14,0-.142,0-.142-.141,0-.316,0-.632,0-.949Z" transform="translate(-145.054 -561.563)" fill="#fff" stroke="#fff" stroke-width="0.5"/>
      <path id="Path_12" data-name="Path 12" d="M-1303.3,786.321q0,1.1,0,2.2c0,.185,0,.189-.183.184-.111,0-.249.049-.325-.031s-.022-.205-.023-.311c0-.536,0-1.073,0-1.609,0-.045,0-.09,0-.135a.067.067,0,0,0-.075-.071h-2.609c-.057,0-.081.03-.082.084s0,.09,0,.136q0,.855,0,1.711c0,.045,0,.09,0,.135,0,.061-.026.094-.091.093-.118,0-.237,0-.355,0-.058,0-.081-.03-.081-.084s0-.079,0-.119v-4.387c0-.017,0-.034,0-.051,0-.146,0-.147.152-.149.09,0,.181,0,.271,0,.07,0,.107.024.105.1,0,.045,0,.09,0,.135q0,.839,0,1.677c0,.045,0,.09,0,.135s.025.084.082.083h2.524c.159,0,.161,0,.162-.157,0-.316,0-.632,0-.949,0-.3,0-.6,0-.9,0-.12,0-.122.125-.125s.214,0,.322,0c.055,0,.084.024.083.081s0,.09,0,.135Q-1303.3,785.228-1303.3,786.321Z" transform="translate(-69.99 -561.559)" fill="#fff" stroke="#fff" stroke-width="0.5"/>
      <path id="Path_13" data-name="Path 13" d="M-1039.93,788.16c-.182,0-.334,0-.486,0-.092,0-.11-.064-.137-.124q-.213-.48-.425-.96a.675.675,0,0,1-.034-.078c-.027-.091-.088-.115-.179-.114q-1.177,0-2.354,0a.168.168,0,0,0-.178.118c-.146.336-.3.668-.445,1.006a.208.208,0,0,1-.24.153c-.111-.011-.225,0-.34,0-.026-.076.02-.127.043-.179q.65-1.443,1.3-2.884c.244-.54.491-1.078.73-1.62.045-.1.094-.158.212-.141s.251-.04.346.028.106.195.152.3q.975,2.151,1.948,4.3C-1039.987,788.017-1039.966,788.074-1039.93,788.16Zm-2.412-4.147-.038,0q-.536,1.188-1.067,2.382a19.307,19.307,0,0,0,2.161-.007Z" transform="translate(-313.842 -561.01)" fill="#fff" stroke="#fff" stroke-width="0.5"/>
      <path id="Path_14" data-name="Path 14" d="M-839.994,786.963c-.378,0-.756,0-1.134,0a.207.207,0,0,0-.229.144c-.143.338-.3.668-.446,1.005a.18.18,0,0,1-.2.128c-.1-.008-.2,0-.3,0-.061,0-.083-.027-.059-.085.017-.042.037-.082.055-.123l2.007-4.439c.014-.031.03-.061.042-.092a.119.119,0,0,1,.129-.085,2.379,2.379,0,0,0,.288,0,.159.159,0,0,1,.177.118c.177.4.36.8.542,1.2l1.5,3.313c.086.19.085.193-.117.189-.122,0-.263.045-.363-.025s-.109-.205-.157-.312c-.122-.266-.242-.534-.354-.805a.186.186,0,0,0-.2-.132C-839.215,786.966-839.6,786.963-839.994,786.963Zm-1.081-.486c.3.034,2.034.022,2.151-.011-.06-.226-.994-2.292-1.081-2.379Z" transform="translate(-501.933 -561.085)" fill="#fff" stroke="#fff" stroke-width="0.5"/>
      <path id="Path_15" data-name="Path 15" d="M-900.908,786.572V788.5c0,.04,0,.079,0,.119,0,.064-.027.092-.091.091-.113,0-.226,0-.339,0-.07,0-.106-.024-.1-.1,0-.045,0-.09,0-.135v-3.811c0-.034,0-.068,0-.1,0-.146,0-.148-.153-.149h-1.287c-.164,0-.164,0-.166-.17,0-.062,0-.124,0-.186,0-.135,0-.135.148-.138h3.387c.04,0,.079,0,.119,0,.067,0,.09.034.09.094,0,.1,0,.192,0,.288s-.038.114-.122.114c-.418,0-.836,0-1.253,0-.252,0-.231-.025-.231.223Q-900.909,785.606-900.908,786.572Z" transform="translate(-445.548 -561.562)" fill="#fff" stroke="#fff" stroke-width="0.5"/>
      <path id="Path_16" data-name="Path 16" d="M-955.682,786.3v-2.15c0-.034,0-.068,0-.1,0-.127,0-.128.136-.13.1,0,.192,0,.288,0,.077,0,.118.023.111.106,0,.045,0,.09,0,.135q0,1.922,0,3.843c0,.229-.016.21.21.21h2.235c.045,0,.09,0,.135,0,.079-.006.114.026.111.107,0,.1,0,.2,0,.3,0,.054-.026.084-.083.083h-2.979c-.159,0-.161,0-.161-.156,0-.243,0-.485,0-.728Z" transform="translate(-396.628 -561.554)" fill="#fff" stroke="#fff" stroke-width="0.5"/>
    </g>
  </g>
</svg>
